<svg width="45" height="61" viewBox="0 0 45 61" fill="none" xmlns="http://www.w3.org/2000/svg">
<path d="M5.02007e-07 58.125C-0.000237727 58.4506 0.084317 58.7707 0.245342 59.0536C0.406367 59.3366 0.638312 59.5728 0.918344 59.739C1.19838 59.9051 1.51684 59.9954 1.84239 60.0011C2.16795 60.0068 2.48936 59.9275 2.775 59.7713L22.5 49.0088L42.225 59.7713C42.5106 59.9275 42.8321 60.0068 43.1576 60.0011C43.4832 59.9954 43.8016 59.9051 44.0817 59.739C44.3617 59.5728 44.5936 59.3366 44.7547 59.0536C44.9157 58.7707 45.0002 58.4506 45 58.125V7.5C45 5.51088 44.2098 3.60322 42.8033 2.1967C41.3968 0.790177 39.4891 0 37.5 0L7.5 0C5.51088 0 3.60322 0.790177 2.1967 2.1967C0.790177 3.60322 5.02007e-07 5.51088 5.02007e-07 7.5V58.125ZM22.5 16.5375C27.7013 11.1938 40.7025 20.55 22.5 32.5763C4.2975 20.55 17.2987 11.1975 22.5 16.545V16.5375Z" fill="#FE0039"/>
</svg>
