<svg width="38" height="38" viewBox="0 0 38 38" fill="none" xmlns="http://www.w3.org/2000/svg">
<path d="M11.1875 27.0625C11.5312 27.4062 11.9687 27.5781 12.5 27.5781C13.0312 27.5781 13.4688 27.4062 13.8125 27.0625L19.25 21.625L24.7344 27.1094C25.0781 27.4531 25.5081 27.6169 26.0244 27.6006C26.5394 27.5856 26.9687 27.4062 27.3125 27.0625C27.6562 26.7187 27.8281 26.2813 27.8281 25.75C27.8281 25.2188 27.6562 24.7812 27.3125 24.4375L21.875 19L27.3594 13.5156C27.7031 13.1719 27.8669 12.7419 27.8506 12.2256C27.8356 11.7106 27.6562 11.2812 27.3125 10.9375C26.9687 10.5937 26.5313 10.4219 26 10.4219C25.4688 10.4219 25.0312 10.5937 24.6875 10.9375L19.25 16.375L13.7656 10.8906C13.4219 10.5469 12.9925 10.3825 12.4775 10.3975C11.9612 10.4138 11.5312 10.5937 11.1875 10.9375C10.8437 11.2812 10.6719 11.7187 10.6719 12.25C10.6719 12.7812 10.8437 13.2188 11.1875 13.5625L16.625 19L11.1406 24.4844C10.7969 24.8281 10.6331 25.2575 10.6494 25.7725C10.6644 26.2888 10.8437 26.7187 11.1875 27.0625ZM19.25 37.75C16.6563 37.75 14.2188 37.2575 11.9375 36.2725C9.65625 35.2887 7.67188 33.9531 5.98438 32.2656C4.29688 30.5781 2.96125 28.5937 1.9775 26.3125C0.9925 24.0312 0.5 21.5937 0.5 19C0.5 16.4063 0.9925 13.9688 1.9775 11.6875C2.96125 9.40625 4.29688 7.42188 5.98438 5.73438C7.67188 4.04688 9.65625 2.71062 11.9375 1.72562C14.2188 0.741875 16.6563 0.25 19.25 0.25C21.8437 0.25 24.2812 0.741875 26.5625 1.72562C28.8437 2.71062 30.8281 4.04688 32.5156 5.73438C34.2031 7.42188 35.5387 9.40625 36.5225 11.6875C37.5075 13.9688 38 16.4063 38 19C38 21.5937 37.5075 24.0312 36.5225 26.3125C35.5387 28.5937 34.2031 30.5781 32.5156 32.2656C30.8281 33.9531 28.8437 35.2887 26.5625 36.2725C24.2812 37.2575 21.8437 37.75 19.25 37.75ZM19.25 34C23.4063 34 26.9456 32.5394 29.8681 29.6181C32.7894 26.6956 34.25 23.1563 34.25 19C34.25 14.8437 32.7894 11.3044 29.8681 8.38187C26.9456 5.46062 23.4063 4 19.25 4C15.0937 4 11.555 5.46062 8.63375 8.38187C5.71125 11.3044 4.25 14.8437 4.25 19C4.25 23.1563 5.71125 26.6956 8.63375 29.6181C11.555 32.5394 15.0937 34 19.25 34Z" fill="#E3DEDE"/>
</svg>
