<svg width="19" height="18" viewBox="0 0 19 18" fill="none" xmlns="http://www.w3.org/2000/svg">
<path d="M7.52293 17.3266C7.30124 17.3266 7.08863 17.2389 6.93187 17.0827C6.77511 16.9266 6.68705 16.7148 6.68705 16.494C6.68705 16.2731 6.77511 16.0613 6.93187 15.9052C7.08863 15.749 7.30124 15.6613 7.52293 15.6613H14.4886C15.0798 15.6613 15.6467 15.4274 16.0648 15.011C16.4828 14.5945 16.7176 14.0298 16.7176 13.4409V4.55913C16.7176 3.97023 16.4828 3.40546 16.0648 2.98905C15.6467 2.57263 15.0798 2.3387 14.4886 2.3387H7.52293C7.30124 2.3387 7.08863 2.25097 6.93187 2.09481C6.77511 1.93866 6.68705 1.72687 6.68705 1.50603C6.68705 1.2852 6.77511 1.07341 6.93187 0.917252C7.08863 0.761097 7.30124 0.67337 7.52293 0.67337H14.4886C15.5232 0.67337 16.5153 1.08276 17.2469 1.81148C17.9784 2.5402 18.3894 3.52856 18.3894 4.55913V13.4409C18.3894 14.4714 17.9784 15.4598 17.2469 16.1885C16.5153 16.9172 15.5232 17.3266 14.4886 17.3266H7.52293ZM7.5129 4.78006C7.59353 4.70584 7.68806 4.64816 7.79107 4.61033C7.89409 4.5725 8.00358 4.55526 8.11328 4.55959C8.22299 4.56392 8.33076 4.58974 8.43045 4.63557C8.53014 4.6814 8.61979 4.74634 8.69428 4.82669L12.0378 8.4349C12.1805 8.58875 12.2598 8.79052 12.2598 9C12.2598 9.20947 12.1805 9.41125 12.0378 9.5651L8.69428 13.1733C8.61971 13.2536 8.53 13.3184 8.43027 13.3641C8.33054 13.4099 8.22275 13.4356 8.11305 13.4398C8.00335 13.444 7.89389 13.4267 7.79091 13.3888C7.68794 13.3509 7.59347 13.2931 7.5129 13.2188C7.43233 13.1445 7.36723 13.0552 7.32133 12.9558C7.27543 12.8565 7.24962 12.7491 7.24538 12.6398C7.23681 12.4191 7.3166 12.2041 7.4672 12.042L9.51567 9.83155H0.835881C0.614192 9.83155 0.401582 9.74383 0.244824 9.58767C0.0880658 9.43152 0 9.21972 0 8.99889C0 8.77805 0.0880658 8.56626 0.244824 8.41011C0.401582 8.25395 0.614192 8.16623 0.835881 8.16623H9.51455L7.46609 5.95689C7.39158 5.87657 7.33368 5.78241 7.2957 5.67979C7.25773 5.57717 7.24042 5.4681 7.24477 5.35882C7.24911 5.24954 7.27503 5.14218 7.32104 5.04287C7.36704 4.94357 7.43224 4.85426 7.5129 4.78006Z" fill="#0A1627"/>
</svg>
