<svg width="39" height="46" viewBox="0 0 39 46" fill="none" xmlns="http://www.w3.org/2000/svg">
<path d="M39 37.0148V39.1577H0V37.0148L4.33333 32.7291V19.872C4.33333 13.2291 8.73167 7.3791 15.1667 5.49339V4.87196C15.1667 3.73531 15.6232 2.64523 16.4359 1.8415C17.2485 1.03777 18.3507 0.586243 19.5 0.586243C20.6493 0.586243 21.7515 1.03777 22.5641 1.8415C23.3768 2.64523 23.8333 3.73531 23.8333 4.87196V5.49339C30.2683 7.3791 34.6667 13.2291 34.6667 19.872V32.7291L39 37.0148ZM23.8333 41.3005C23.8333 42.4372 23.3768 43.5273 22.5641 44.331C21.7515 45.1347 20.6493 45.5862 19.5 45.5862C18.3507 45.5862 17.2485 45.1347 16.4359 44.331C15.6232 43.5273 15.1667 42.4372 15.1667 41.3005" fill="#E3DEDE"/>
</svg>
