<svg width="46" height="46" viewBox="0 0 46 46" fill="none" xmlns="http://www.w3.org/2000/svg">
<path d="M23 0.311462C35.4062 0.311462 45.5 10.4053 45.5 22.8115C45.5 35.2176 35.4062 45.3115 23 45.3115C10.5938 45.3115 0.499999 35.2176 0.499999 22.8115C0.499999 10.4053 10.5938 0.311462 23 0.311462ZM23 3.773C12.4648 3.773 3.96154 12.2763 3.96154 22.8115C3.96154 33.3467 12.4648 41.8499 23 41.8499C33.5352 41.8499 42.0385 33.3467 42.0385 22.8115C42.0385 12.2763 33.5352 3.773 23 3.773ZM24.2462 11.7242L34.0856 21.5653L35.3317 22.8115L34.0856 24.0576L24.2427 33.8988L21.7538 31.4653L28.6769 24.5422H10.8846V21.0807H28.6769L21.7538 14.1576L24.2462 11.7242V11.7242Z" fill="#E3DEDE"/>
</svg>
