<svg width="45" height="46" viewBox="0 0 45 46" fill="none" xmlns="http://www.w3.org/2000/svg">
<path d="M22.5 0.586243C10.08 0.586243 0 10.6662 0 23.0862C0 35.5062 10.08 45.5862 22.5 45.5862C34.92 45.5862 45 35.5062 45 23.0862C45 10.6662 34.92 0.586243 22.5 0.586243ZM22.5 9.58624C26.8425 9.58624 30.375 13.1187 30.375 17.4612C30.375 21.8037 26.8425 25.3362 22.5 25.3362C18.1575 25.3362 14.625 21.8037 14.625 17.4612C14.625 13.1187 18.1575 9.58624 22.5 9.58624ZM22.5 41.0862C17.9325 41.0862 12.5325 39.2412 8.685 34.6062C12.6261 31.5141 17.4906 29.8336 22.5 29.8336C27.5094 29.8336 32.3739 31.5141 36.315 34.6062C32.4675 39.2412 27.0675 41.0862 22.5 41.0862Z" fill="#E3DEDE"/>
</svg>
