<svg width="243" height="45" viewBox="0 0 243 45" fill="none" xmlns="http://www.w3.org/2000/svg">
<path d="M0 15C0 6.71573 6.71573 0 15 0H220L212.251 2.43456C209.025 3.44834 206.235 5.52282 204.336 8.3213L202.505 11.0191C201.837 12.0029 201.289 13.0625 200.872 14.1758L200.004 16.4905C199.021 19.1111 198.791 21.9545 199.34 24.699L200.041 28.204C200.345 29.7254 200.884 31.1905 201.637 32.5469L202.747 34.5441C204.521 37.7378 207.4 40.1741 210.843 41.3959L221 45H15C6.71573 45 0 38.2843 0 30V15Z" fill="#E3DEDE"/>
<path d="M220.478 45C208.053 44.9865 197.991 34.9088 198 22.4843C198.009 10.062 208.085 -0.00449849 220.507 1.50813e-06C232.931 0.00450151 243 10.0755 243 22.5C242.993 34.9313 232.909 45.0045 220.478 45ZM202.5 22.887C202.551 27.6439 204.483 32.1871 207.874 35.5236C211.265 38.8602 215.839 40.7188 220.596 40.6932C225.353 40.6677 229.906 38.76 233.261 35.3872C236.616 32.0143 238.499 27.4506 238.499 22.6935C238.499 17.9364 236.616 13.3727 233.261 9.99983C229.906 6.627 225.353 4.71933 220.596 4.69376C215.839 4.66819 211.265 6.5268 207.874 9.86337C204.483 13.1999 202.551 17.7431 202.5 22.5V22.887ZM222.75 33.75H218.25V29.25H222.75V33.75ZM222.75 24.75H218.25V11.25H222.75V24.75Z" fill="#E3DEDE"/>
</svg>
