<svg width="30" height="32" viewBox="0 0 30 32" fill="none" xmlns="http://www.w3.org/2000/svg">
<path d="M12.0815 0.640595C14.365 0.640305 16.6018 1.30011 18.5328 2.54355C20.4638 3.787 22.0098 5.56318 22.9919 7.66628C23.9739 9.76938 24.3517 12.1133 24.0814 14.4265C23.8111 16.7396 22.9039 18.9273 21.4648 20.736L29.6315 29.0673C29.8557 29.2945 29.9872 29.6 29.9996 29.9222C30.0119 30.2444 29.9041 30.5594 29.6979 30.8038C29.4917 31.0482 29.2025 31.2038 28.8883 31.2394C28.5742 31.2749 28.2585 31.1877 28.0048 30.9954L27.8648 30.8712L19.6965 22.54C18.1946 23.7831 16.4222 24.6402 14.5282 25.0394C12.6342 25.4386 10.6739 25.3682 8.81211 24.8341C6.95031 24.2999 5.2414 23.3177 3.82897 21.9699C2.41655 20.6221 1.34189 18.9481 0.695298 17.0887C0.0487108 15.2292 -0.15091 13.2386 0.113213 11.284C0.377335 9.32953 1.09748 7.46825 2.21314 5.85662C3.32879 4.24498 4.80735 2.93009 6.52456 2.02244C8.24178 1.11479 10.1475 0.640897 12.0815 0.640595ZM12.0815 3.19099C10.823 3.19099 9.5768 3.44386 8.4141 3.93518C7.25139 4.42649 6.19494 5.14663 5.30504 6.05446C4.41515 6.96229 3.70924 8.04005 3.22764 9.22619C2.74603 10.4123 2.49815 11.6836 2.49815 12.9675C2.49815 14.2514 2.74603 15.5227 3.22764 16.7088C3.70924 17.8949 4.41515 18.9727 5.30504 19.8805C6.19494 20.7884 7.25139 21.5085 8.4141 21.9998C9.5768 22.4911 10.823 22.744 12.0815 22.744C14.6231 22.744 17.0607 21.714 18.8579 19.8805C20.6551 18.0471 21.6648 15.5604 21.6648 12.9675C21.6648 10.3746 20.6551 7.88791 18.8579 6.05446C17.0607 4.22101 14.6231 3.19099 12.0815 3.19099Z" fill="#0A1627"/>
</svg>
