<svg width="242" height="45" viewBox="0 0 242 45" fill="none" xmlns="http://www.w3.org/2000/svg">
<path d="M-0.00012207 15C-0.00012207 6.71573 6.71561 0 14.9999 0H220L212.251 2.43456C209.025 3.44834 206.235 5.52282 204.336 8.3213L202.505 11.0191C201.837 12.0029 201.289 13.0625 200.871 14.1758L200.003 16.4905C199.021 19.1111 198.791 21.9545 199.34 24.699L200.041 28.204C200.345 29.7254 200.883 31.1905 201.637 32.5469L202.747 34.5441C204.521 37.7378 207.4 40.1741 210.843 41.3959L221 45H14.9999C6.71561 45 -0.00012207 38.2843 -0.00012207 30V15Z" fill="#E3DEDE"/>
<path d="M231.746 21.6963L224.518 28.925V26.357C224.518 25.8048 224.07 25.357 223.518 25.357C216.946 25.357 212.908 27.2002 210.614 29.2514C211.458 26.0307 213.17 23.5352 215.155 21.709C218.02 19.0732 221.403 17.8749 223.518 17.8749C224.07 17.8749 224.518 17.4272 224.518 16.8749V14.4677L231.746 21.6963Z" fill="#E3DEDE" stroke="#E3DEDE" stroke-width="2" stroke-linecap="round" stroke-linejoin="round"/>
<path d="M240.125 22.5C240.125 33.8909 230.891 43.125 219.5 43.125C208.109 43.125 198.875 33.8909 198.875 22.5C198.875 11.1091 208.109 1.875 219.5 1.875C230.891 1.875 240.125 11.1091 240.125 22.5Z" stroke="#E3DEDE" stroke-width="3.75" stroke-linecap="round" stroke-linejoin="round"/>
</svg>
