<svg width="46" height="45" viewBox="0 0 46 45" fill="none" xmlns="http://www.w3.org/2000/svg">
<path d="M35.6958 21.6963L28.4609 28.9262V26.357C28.4609 25.8048 28.0132 25.357 27.4609 25.357C20.8839 25.357 16.8423 27.201 14.5469 29.2527C15.3914 26.0315 17.1046 23.5358 19.0912 21.7093C21.9583 19.0734 25.3443 17.8749 27.4609 17.8749C28.0132 17.8749 28.4609 17.4272 28.4609 16.8749V14.4665L35.6958 21.6963Z" fill="#E3DEDE" stroke="#E3DEDE" stroke-width="2" stroke-linecap="round" stroke-linejoin="round"/>
<path d="M44.0811 22.5C44.0811 33.8896 34.8412 43.125 23.4404 43.125C12.0397 43.125 2.7998 33.8896 2.7998 22.5C2.7998 11.1104 12.0397 1.875 23.4404 1.875C34.8412 1.875 44.0811 11.1104 44.0811 22.5Z" stroke="#E3DEDE" stroke-width="3.75" stroke-linecap="round" stroke-linejoin="round"/>
</svg>
