<svg width="47" height="46" viewBox="0 0 47 46" fill="none" xmlns="http://www.w3.org/2000/svg">
<path d="M30.4939 14.5115L30.7263 14.9837L31.247 15.0596L45.3336 17.1122C45.334 17.1123 45.3345 17.1123 45.3349 17.1124C45.7665 17.1774 46.0549 17.5745 45.9909 17.9907L45.9908 17.9907L45.9892 18.0017C45.9653 18.1696 45.8864 18.3253 45.7633 18.4467C45.763 18.447 45.7626 18.4473 45.7623 18.4477L35.57 28.4107L35.1949 28.7774L35.2834 29.2945L37.6918 43.3654L37.6919 43.3662C37.7648 43.7901 37.4806 44.1914 37.0588 44.2643L37.0573 44.2646C36.8895 44.2938 36.7167 44.2659 36.5734 44.1894L36.5689 44.1871L23.9664 37.5439L23.5001 37.298L23.0338 37.5439L10.4313 44.1871L10.4298 44.1879C10.3022 44.2554 10.1586 44.2856 10.015 44.2754C9.87148 44.2651 9.73343 44.2147 9.61656 44.1296C9.49967 44.0445 9.40857 43.928 9.35393 43.7931C9.29929 43.6581 9.28341 43.5104 9.3082 43.3667L9.30843 43.3654L11.7168 29.2945L11.8053 28.7774L11.4302 28.4107L1.23611 18.4459L1.23604 18.4458C1.088 18.3011 1.00282 18.1029 1.00007 17.8945C0.997324 17.6867 1.07677 17.4867 1.22019 17.3383C1.34123 17.215 1.49564 17.1367 1.6611 17.113L1.6635 17.1127L15.7532 15.0596L16.274 14.9837L16.5063 14.5115L22.8024 1.714C22.8027 1.71338 22.803 1.71275 22.8033 1.71213C22.9985 1.32324 23.4666 1.17016 23.8445 1.3572L23.8457 1.35777C23.997 1.43242 24.1201 1.55559 24.195 1.7083L24.1955 1.70917L30.4939 14.5115Z" stroke="#E3DEDE" stroke-width="2"/>
</svg>
