<svg width="47" height="46" viewBox="0 0 47 46" fill="none" xmlns="http://www.w3.org/2000/svg">
<path d="M45.4809 16.1231L31.3912 14.0701L25.0928 1.26772C24.9207 0.917204 24.6377 0.633449 24.2881 0.46097C23.4113 0.0269924 22.3459 0.388641 21.9075 1.26772L15.609 14.0701L1.51931 16.1231C1.13086 16.1788 0.775706 16.3624 0.50379 16.6406C0.175059 16.9793 -0.00608708 17.4351 0.00015619 17.9077C0.00639946 18.3803 0.199521 18.8311 0.537086 19.161L10.7312 29.1258L8.32276 43.1967C8.26628 43.524 8.30241 43.8606 8.42704 44.1684C8.55168 44.4762 8.75983 44.7428 9.0279 44.938C9.29597 45.1332 9.61324 45.2492 9.94371 45.2728C10.2742 45.2965 10.6047 45.2268 10.8976 45.0717L23.5001 38.4285L36.1026 45.0717C36.4466 45.2553 36.8462 45.3165 37.2291 45.2497C38.1947 45.0828 38.8439 44.1648 38.6775 43.1967L36.2691 29.1258L46.4631 19.161C46.7406 18.8883 46.9237 18.5323 46.9792 18.1428C47.1291 17.1691 46.452 16.2678 45.4809 16.1231Z" fill="#B5A44A"/>
</svg>
