<svg width="38" height="38" viewBox="0 0 38 38" fill="none" xmlns="http://www.w3.org/2000/svg">
<path d="M25.6875 23.125C26.0312 23.2812 26.3831 23.2969 26.7431 23.1719C27.1019 23.0469 27.3437 22.8125 27.4687 22.4688C27.7187 21.9063 27.8906 21.3362 27.9844 20.7587C28.0781 20.18 28.125 19.5937 28.125 19C28.125 17.8125 27.8988 16.6325 27.4463 15.46C26.9925 14.2888 26.3125 13.25 25.4063 12.3437C24.5 11.4375 23.4769 10.7656 22.3369 10.3281C21.1956 9.89062 20.0313 9.67188 18.8438 9.67188L19.6875 8.82812C19.9688 8.54687 20.1019 8.21875 20.0869 7.84375C20.0706 7.46875 19.9219 7.14063 19.6406 6.85938C19.3594 6.57813 19.0312 6.4375 18.6562 6.4375C18.2812 6.4375 17.9531 6.57813 17.6719 6.85938L13.9687 10.5156C13.7812 10.7031 13.6875 10.9219 13.6875 11.1719C13.6875 11.4219 13.7812 11.6406 13.9687 11.8281L17.6719 15.4844C17.9531 15.7344 18.2812 15.8669 18.6562 15.8819C19.0312 15.8981 19.3594 15.7656 19.6406 15.4844C19.9219 15.2031 20.0625 14.875 20.0625 14.5C20.0625 14.125 19.9219 13.7969 19.6406 13.5156L18.5625 12.4375C19.4062 12.4375 20.2656 12.6013 21.1406 12.9288C22.0156 13.2575 22.7656 13.7344 23.3906 14.3594C24.0156 14.9844 24.4925 15.7031 24.8212 16.5156C25.1487 17.3281 25.3125 18.1406 25.3125 18.9531C25.3125 19.3281 25.2894 19.7031 25.2431 20.0781C25.1956 20.4531 25.0938 20.8125 24.9375 21.1562C24.7813 21.5937 24.7738 21.9919 24.915 22.3506C25.055 22.7106 25.3125 22.9687 25.6875 23.125V23.125ZM17.8594 31.1406C18.1406 31.4219 18.4688 31.5625 18.8438 31.5625C19.2188 31.5625 19.5469 31.4219 19.8281 31.1406L23.5313 27.4844C23.7188 27.2969 23.8125 27.0781 23.8125 26.8281C23.8125 26.5781 23.7188 26.3594 23.5313 26.1719L19.8281 22.5156C19.5469 22.2656 19.2188 22.1325 18.8438 22.1162C18.4688 22.1012 18.1406 22.2344 17.8594 22.5156C17.5781 22.7969 17.4375 23.125 17.4375 23.5C17.4375 23.875 17.5781 24.2031 17.8594 24.4844L18.8906 25.5156C18.0156 25.5469 17.1644 25.4063 16.3369 25.0938C15.5081 24.7812 14.7656 24.2969 14.1094 23.6406C13.4844 23.0156 13.0075 22.2969 12.6788 21.4844C12.3513 20.6719 12.1875 19.8594 12.1875 19.0469C12.1875 18.6406 12.2113 18.2575 12.2588 17.8975C12.305 17.5387 12.4062 17.1719 12.5625 16.7969C12.6875 16.4531 12.7031 16.1169 12.6094 15.7881C12.5156 15.4606 12.3281 15.2031 12.0469 15.0156C11.6719 14.7656 11.2731 14.7031 10.8506 14.8281C10.4294 14.9531 10.1406 15.2031 9.98437 15.5781C9.73437 16.1406 9.57 16.695 9.49125 17.2413C9.41375 17.7888 9.375 18.375 9.375 19C9.375 20.1875 9.60938 21.3594 10.0781 22.5156C10.5469 23.6719 11.2344 24.7031 12.1406 25.6094C13.0469 26.5156 14.0625 27.1956 15.1875 27.6494C16.3125 28.1019 17.4687 28.3437 18.6562 28.375L17.8594 29.1719C17.5781 29.4531 17.4375 29.7813 17.4375 30.1563C17.4375 30.5313 17.5781 30.8594 17.8594 31.1406V31.1406ZM18.75 37.75C16.1563 37.75 13.7188 37.2575 11.4375 36.2725C9.15625 35.2887 7.17188 33.9531 5.48438 32.2656C3.79688 30.5781 2.46125 28.5937 1.4775 26.3125C0.4925 24.0312 0 21.5937 0 19C0 16.4063 0.4925 13.9688 1.4775 11.6875C2.46125 9.40625 3.79688 7.42188 5.48438 5.73438C7.17188 4.04688 9.15625 2.71062 11.4375 1.72562C13.7188 0.741875 16.1563 0.25 18.75 0.25C21.3437 0.25 23.7812 0.741875 26.0625 1.72562C28.3437 2.71062 30.3281 4.04688 32.0156 5.73438C33.7031 7.42188 35.0387 9.40625 36.0225 11.6875C37.0075 13.9688 37.5 16.4063 37.5 19C37.5 21.5937 37.0075 24.0312 36.0225 26.3125C35.0387 28.5937 33.7031 30.5781 32.0156 32.2656C30.3281 33.9531 28.3437 35.2887 26.0625 36.2725C23.7812 37.2575 21.3437 37.75 18.75 37.75ZM18.75 34C22.9063 34 26.4456 32.5394 29.3681 29.6181C32.2894 26.6956 33.75 23.1563 33.75 19C33.75 14.8437 32.2894 11.3044 29.3681 8.38187C26.4456 5.46062 22.9063 4 18.75 4C14.5937 4 11.055 5.46062 8.13375 8.38187C5.21125 11.3044 3.75 14.8437 3.75 19C3.75 23.1563 5.21125 26.6956 8.13375 29.6181C11.055 32.5394 14.5937 34 18.75 34Z" fill="#E3DEDE"/>
</svg>
