<svg width="45" height="45" viewBox="0 0 45 45" fill="none" xmlns="http://www.w3.org/2000/svg">
<path d="M22.5 0C34.9062 0 45 10.0938 45 22.5C45 34.9062 34.9062 45 22.5 45C10.0938 45 -1.19209e-06 34.9062 -1.19209e-06 22.5C-1.19209e-06 10.0938 10.0938 0 22.5 0ZM22.5 3.46154C11.9648 3.46154 3.46154 11.9648 3.46154 22.5C3.46154 33.0352 11.9648 41.5385 22.5 41.5385C33.0352 41.5385 41.5385 33.0352 41.5385 22.5C41.5385 11.9648 33.0352 3.46154 22.5 3.46154ZM23.7462 11.4127L33.5856 21.2538L34.8317 22.5L33.5856 23.7462L23.7427 33.5873L21.2538 31.1538L28.1769 24.2308H10.3846V20.7692H28.1769L21.2538 13.8462L23.7462 11.4127V11.4127Z" fill="#E3DEDE"/>
</svg>
