<svg width="184" height="37" viewBox="0 0 184 37" fill="none" xmlns="http://www.w3.org/2000/svg">
<path d="M184 15.5C184 7.21573 177.284 0.5 169 0.5H18.7511L23.5646 2.11073C26.6471 3.14226 29.3112 5.14721 31.1557 7.82378L31.6037 8.47386C32.5279 9.81498 33.2189 11.3026 33.6474 12.874V12.874C34.2089 14.9325 34.3077 17.0897 33.9369 19.1909L33.4985 21.675C33.1692 23.5414 32.4891 25.3285 31.4942 26.9417L31.0347 27.6869C29.5005 30.1747 27.2729 32.16 24.6257 33.399L18 36.5H169C177.284 36.5 184 29.7843 184 21.5V15.5Z" fill="#E3DEDE"/>
<path d="M25.3928 17.2142H19.2856V11.1071C19.2856 10.9303 19.141 10.7856 18.9642 10.7856H17.0356C16.8589 10.7856 16.7142 10.9303 16.7142 11.1071V17.2142H10.6071C10.4303 17.2142 10.2856 17.3589 10.2856 17.5356V19.4642C10.2856 19.641 10.4303 19.7856 10.6071 19.7856H16.7142V25.8928C16.7142 26.0696 16.8589 26.2142 17.0356 26.2142H18.9642C19.141 26.2142 19.2856 26.0696 19.2856 25.8928V19.7856H25.3928C25.5696 19.7856 25.7142 19.641 25.7142 19.4642V17.5356C25.7142 17.3589 25.5696 17.2142 25.3928 17.2142Z" fill="#E3DEDE"/>
<path d="M18 0.5C8.05982 0.5 0 8.55982 0 18.5C0 28.4402 8.05982 36.5 18 36.5C27.9402 36.5 36 28.4402 36 18.5C36 8.55982 27.9402 0.5 18 0.5ZM18 33.4464C9.74732 33.4464 3.05357 26.7527 3.05357 18.5C3.05357 10.2473 9.74732 3.55357 18 3.55357C26.2527 3.55357 32.9464 10.2473 32.9464 18.5C32.9464 26.7527 26.2527 33.4464 18 33.4464Z" fill="#E3DEDE"/>
</svg>
