<svg width="100" height="64" viewBox="0 0 100 64" fill="none" xmlns="http://www.w3.org/2000/svg">
<path d="M0 11.127C0 8.32541 1.31696 5.63852 3.66117 3.65747C6.00537 1.67642 9.18479 0.563477 12.5 0.563477H87.5C90.8152 0.563477 93.9946 1.67642 96.3388 3.65747C98.683 5.63852 100 8.32541 100 11.127V53.3813C100 56.1829 98.683 58.8698 96.3388 60.8508C93.9946 62.8319 90.8152 63.9448 87.5 63.9448H12.5C9.18479 63.9448 6.00537 62.8319 3.66117 60.8508C1.31696 58.8698 0 56.1829 0 53.3813V11.127ZM12.5 5.84526C10.8424 5.84526 9.25268 6.40173 8.08058 7.39225C6.90848 8.38278 6.25 9.72622 6.25 11.127V12.2732L50 34.4567L93.75 12.2732V11.127C93.75 9.72622 93.0915 8.38278 91.9194 7.39225C90.7473 6.40173 89.1576 5.84526 87.5 5.84526H12.5ZM93.75 18.4317L64.325 33.3528L93.75 48.6541V18.4317ZM93.5375 54.7492L58.2875 36.4162L50 40.6152L41.7125 36.4162L6.4625 54.744C6.81766 55.8679 7.60198 56.8613 8.69369 57.57C9.78539 58.2786 11.1234 58.6629 12.5 58.663H87.5C88.8758 58.6632 90.2132 58.2797 91.3048 57.5721C92.3964 56.8645 93.1812 55.8722 93.5375 54.7492ZM6.25 48.6541L35.675 33.3528L6.25 18.4317V48.6541Z" fill="#E3DEDE"/>
</svg>
