<svg width="39" height="46" viewBox="0 0 39 46" fill="none" xmlns="http://www.w3.org/2000/svg">
<path d="M38.5714 37.0148V39.1577H0V37.0148L4.28571 32.7291V19.872C4.28571 13.2291 8.63571 7.3791 15 5.49339V4.87196C15 3.73531 15.4515 2.64523 16.2553 1.8415C17.059 1.03777 18.1491 0.586243 19.2857 0.586243C20.4224 0.586243 21.5124 1.03777 22.3162 1.8415C23.1199 2.64523 23.5714 3.73531 23.5714 4.87196V5.49339C29.9357 7.3791 34.2857 13.2291 34.2857 19.872V32.7291L38.5714 37.0148ZM23.5714 41.3005C23.5714 42.4372 23.1199 43.5273 22.3162 44.331C21.5124 45.1347 20.4224 45.5862 19.2857 45.5862C18.1491 45.5862 17.059 45.1347 16.2553 44.331C15.4515 43.5273 15 42.4372 15 41.3005" fill="#E3DEDE"/>
<circle cx="31.5" cy="12.0864" r="7.5" fill="#FE0039"/>
</svg>
