<svg width="46" height="45" viewBox="0 0 46 45" fill="none" xmlns="http://www.w3.org/2000/svg">
<path d="M23.4023 45C10.9778 44.9865 0.915811 34.9087 0.924811 22.4842C0.933811 10.062 11.0093 -0.00449849 23.4316 1.50813e-06C35.8561 0.00450151 45.9248 10.0755 45.9248 22.5C45.9181 34.9312 35.8336 45.0045 23.4023 45ZM5.42481 22.887C5.47595 27.6439 7.40807 32.1871 10.7989 35.5236C14.1897 38.8602 18.7635 40.7188 23.5205 40.6932C28.2776 40.6677 32.8311 38.76 36.1859 35.3872C39.5406 32.0143 41.4238 27.4506 41.4238 22.6935C41.4238 17.9364 39.5406 13.3727 36.1859 9.99983C32.8311 6.627 28.2776 4.71933 23.5205 4.69376C18.7635 4.66819 14.1897 6.5268 10.7989 9.86337C7.40807 13.1999 5.47595 17.7431 5.42481 22.5V22.887ZM25.6748 33.75H21.1748V29.25H25.6748V33.75ZM25.6748 24.75H21.1748V11.25H25.6748V24.75Z" fill="#E3DEDE"/>
</svg>
